<svg xmlns="http://www.w3.org/2000/svg" xmlns:xlink="http://www.w3.org/1999/xlink" xmlns:inkscape="http://www.inkscape.org/namespaces/inkscape" version="1.1" width="1000" height="1000" viewBox="0 0 1000 1000">
<defs>
<clipPath id="clip_1">
<path transform="matrix(1,0,0,-1,0,1000)" d="M0 1000H1000V0H0Z"/>
</clipPath>
<clipPath id="clip_2">
<path transform="matrix(1,0,0,-1,0,1000)" d="M504.035 740.698V705.674H474.455V692.055L504.035 692.153V673.429C503.287 669.679 499.444 655.825 483.658 655.299 465.403 654.664 460.861 667.32 460.861 667.32 460.861 667.32 467.602 671.428 462.929 680.183 459.608 686.415 445.013 686.13 446.314 673.334 446.954 667.32 455.046 665.872 455.046 665.872 455.046 665.872 459.42 647.828 442.391 642.012 433.882 639.109 419.771 655.299 419.564 656.959 419.564 656.959 427.443 658.203 427.024 666.283 426.622 674.377 415.006 676.867 411.889 667.526 411.889 667.526 402.745 677.909 392.808 673.97 392.808 673.97 418.739 651.145 433.678 608.609H508.763 513.749 588.855C603.81 651.145 629.721 673.97 629.721 673.97 619.747 677.909 610.626 667.526 610.626 667.526 607.522 676.867 595.916 674.377 595.488 666.283 595.074 658.203 602.948 656.959 602.948 656.959 602.749 655.299 588.642 639.109 580.15 642.012 563.117 647.828 567.491 665.872 567.491 665.872 567.491 665.872 575.583 667.32 576.2 673.334 577.526 686.13 562.903 686.415 559.604 680.183 554.924 671.428 561.676 667.32 561.676 667.32 561.676 667.32 557.085 654.664 538.857 655.299 523.117 655.825 519.25 669.595 518.489 673.405V692.177L548.082 692.259V705.674H518.489V740.698Z"/>
</clipPath>
<clipPath id="clip_3">
<path transform="matrix(1,0,0,-1,0,1000)" d="M0 1000H1000V0H0Z"/>
</clipPath>
<clipPath id="clip_4">
<path transform="matrix(1,0,0,-1,0,1000)" d="M376.281 558.435C373.392 558.435 366.835 558.747 361.334 558.747 359.771 558.747 359.054 558.543 359.054 557.816 359.054 557.086 359.669 556.883 360.82 556.883 362.264 556.883 364.039 556.77 364.882 556.565 368.305 555.836 369.122 554.187 369.346 550.643 369.54 547.32 369.54 544.418 369.54 528.623V510.359C369.54 500.798 369.54 492.599 369.025 488.237 368.6 485.223 368.093 482.941 366.014 482.526 365.081 482.315 363.82 482.111 362.264 482.111 361.028 482.111 360.617 481.803 360.617 481.283 360.617 480.552 361.334 480.244 362.687 480.244 366.835 480.244 373.392 480.552 375.773 480.552 378.473 480.552 385.014 480.244 391.854 480.244 392.999 480.244 393.833 480.552 393.833 481.283 393.833 481.803 393.32 482.111 392.178 482.111 390.621 482.111 388.334 482.315 386.874 482.526 383.768 482.941 383.134 485.223 382.844 488.134 382.311 492.599 382.311 500.798 382.311 510.359V551.889C382.311 553.033 382.621 553.657 383.134 553.868 384.076 554.187 385.637 554.288 387.188 554.288 389.592 554.288 393.833 553.657 397.57 550.237 403.385 545.042 403.698 538.082 403.698 534.655 403.698 524.063 395.603 517.523 389.779 517.523 387.599 517.523 386.874 517.204 386.874 516.374 386.874 515.662 387.599 515.555 388.131 515.447 388.643 515.337 389.779 515.337 390.308 515.337 405.057 515.337 415.857 525.729 415.857 540.464 415.857 545.976 412.949 550.643 410.669 552.83 408.998 554.386 404.318 558.747 391.339 558.747 386.581 558.747 380.551 558.435 376.281 558.435"/>
</clipPath>
<clipPath id="clip_5">
<path transform="matrix(1,0,0,-1,0,1000)" d="M0 1000H1000V0H0Z"/>
</clipPath>
<clipPath id="clip_6">
<path transform="matrix(1,0,0,-1,0,1000)" d="M470.23 547.32C469.512 547.218 468.055 546.908 466.399 546.811 464.635 546.696 444.382 546.811 441.479 546.811 438.88 546.811 433.059 547.014 428.282 547.014 426.944 547.014 426.21 546.811 426.21 546.177 426.21 545.551 426.825 545.244 427.765 545.244 429.117 545.244 430.679 545.143 431.4 544.938 434.305 544.105 435.135 543.172 435.337 540.161 435.456 537.354 435.456 534.857 435.456 521.465V505.894C435.456 497.792 435.456 490.836 435.028 487.093 434.724 484.51 434.198 482.841 432.338 482.422 431.501 482.217 430.453 482.111 429.117 482.111 427.973 482.111 427.663 481.603 427.663 481.183 427.663 480.552 428.282 480.244 429.43 480.244 431.297 480.244 433.589 480.341 435.758 480.452 437.931 480.452 439.905 480.552 440.95 480.552 443.665 480.552 447.083 480.452 451.548 480.341 456.017 480.137 461.519 480.041 468.352 480.041 471.79 480.041 472.638 480.041 473.247 482.315 473.764 484.074 474.504 490.109 474.504 492.081 474.504 493.014 474.391 494.162 473.674 494.162 473.041 494.162 472.84 493.739 472.638 492.803 471.998 489.184 470.973 487.304 468.673 486.266 466.293 485.223 462.459 485.123 460.062 485.123 450.715 485.123 447.922 486.478 447.714 492.501 447.596 495.093 447.714 502.575 447.714 505.584V512.635C447.714 513.158 447.8 513.574 448.231 513.574 450.516 513.574 460.887 513.37 462.548 513.158 465.975 512.853 467.126 511.495 467.652 509.74 467.854 508.586 467.854 507.448 467.956 506.521 467.956 506.107 468.169 505.792 468.795 505.792 469.614 505.792 469.72 507.035 469.72 507.768 469.72 508.381 469.93 511.918 470.13 513.676 470.663 518.14 470.871 519.598 470.871 520.124 470.871 520.636 470.562 521.045 470.13 521.045 469.72 521.045 469.411 520.534 468.673 519.916 467.854 518.982 466.501 518.766 464.323 518.57 462.242 518.356 450.409 518.356 448.331 518.356 447.8 518.356 447.714 518.766 447.714 519.279V541.092C447.714 541.618 447.922 541.922 448.331 541.922 450.184 541.922 461.091 541.712 462.649 541.511 467.238 541.092 467.956 539.839 468.673 538.288 469.206 537.25 469.311 535.7 469.311 535.065 469.311 534.349 469.411 533.927 470.029 533.927 470.752 533.927 470.973 534.972 471.061 535.38 471.278 536.421 471.486 540.266 471.587 541.195 471.79 545.244 472.321 546.295 472.321 546.908 472.321 547.32 472.224 547.738 471.688 547.738 471.278 547.738 470.752 547.433 470.23 547.32"/>
</clipPath>
<clipPath id="clip_7">
<path transform="matrix(1,0,0,-1,0,1000)" d="M0 1000H1000V0H0Z"/>
</clipPath>
<clipPath id="clip_8">
<path transform="matrix(1,0,0,-1,0,1000)" d="M498.461 546.811C496.595 546.811 490.783 547.014 486.004 547.014 484.641 547.014 483.917 546.811 483.917 546.177 483.917 545.551 484.552 545.244 485.475 545.244 486.828 545.244 488.393 545.143 489.109 544.938 492.019 544.105 492.84 543.172 493.066 540.161 493.159 537.354 493.159 534.857 493.159 521.465V505.894C493.159 497.792 493.159 490.836 492.743 487.093 492.448 484.51 491.918 482.841 490.038 482.422 489.21 482.217 488.185 482.111 486.828 482.111 485.684 482.111 485.375 481.603 485.375 481.183 485.375 480.552 486.004 480.244 487.14 480.244 490.783 480.244 496.595 480.552 498.355 480.552 499.703 480.552 507.285 480.244 512.571 480.244 513.718 480.244 514.459 480.552 514.459 481.183 514.459 481.603 514.028 482.111 513.311 482.111 512.16 482.111 510.192 482.217 508.839 482.422 506.045 482.841 505.633 484.51 505.315 487.093 504.897 490.836 504.803 497.682 504.803 505.894V507.139C504.803 507.658 505.105 507.864 505.523 507.864L513.718 507.658C514.354 507.658 514.875 507.55 515.387 507.035 516.527 505.684 520.368 499.76 524.003 494.988 529.086 488.134 532.528 483.98 536.464 482.009 538.857 480.757 541.343 480.244 546.428 480.244H555.181C556.313 480.244 556.923 480.452 556.923 481.183 556.923 481.603 556.503 482.111 555.779 482.111 555.055 482.111 554.541 482.111 553.611 482.315 552.148 482.631 548.926 483.047 543.83 488.134 538.331 493.638 531.891 501.637 523.796 511.601 532.729 518.766 536.464 524.583 536.464 531.13 536.464 537.043 532.623 541.511 530.034 543.277 525.152 546.49 518.501 547.014 512.677 547.014 509.882 547.014 501.58 546.811 498.461 546.811M505.633 513.061C505.005 513.37 504.803 513.676 504.803 514.619V540.882C504.803 541.618 505.005 541.922 505.633 542.126 506.565 542.35 508.733 542.444 511.03 542.444 516.424 542.444 524.952 539.229 524.952 526.763 524.952 519.491 521.829 515.662 519.038 513.676 517.459 512.535 516.206 512.235 512.571 512.235 510.293 512.235 507.603 512.439 505.633 513.061"/>
</clipPath>
<clipPath id="clip_9">
<path transform="matrix(1,0,0,-1,0,1000)" d="M0 1000H1000V0H0Z"/>
</clipPath>
<clipPath id="clip_10">
<path transform="matrix(1,0,0,-1,0,1000)" d="M599.161 547.32C598.42 547.218 596.984 546.908 595.314 546.811 593.56 546.696 573.29 546.811 570.392 546.811 567.8 546.811 561.984 547.014 557.203 547.014 555.848 547.014 555.123 546.811 555.123 546.177 555.123 545.551 555.754 545.244 556.677 545.244 558.042 545.244 559.591 545.143 560.311 544.938 563.23 544.105 564.038 543.172 564.268 540.161 564.369 537.354 564.369 534.857 564.369 521.465V505.894C564.369 497.792 564.369 490.836 563.949 487.093 563.644 484.51 563.117 482.841 561.244 482.422 560.425 482.217 559.383 482.111 558.042 482.111 556.894 482.111 556.576 481.603 556.576 481.183 556.576 480.552 557.203 480.244 558.351 480.244 560.21 480.244 562.502 480.341 564.687 480.452 566.863 480.452 568.831 480.552 569.88 480.552 572.561 480.552 575.987 480.452 580.473 480.341 584.929 480.137 590.428 480.041 597.281 480.041 600.702 480.041 601.541 480.041 602.177 482.315 602.689 484.074 603.43 490.109 603.43 492.081 603.43 493.014 603.307 494.162 602.588 494.162 601.952 494.162 601.753 493.739 601.541 492.803 600.919 489.184 599.882 487.304 597.602 486.266 595.205 485.223 591.362 485.123 588.974 485.123 579.64 485.123 576.827 486.478 576.626 492.501 576.53 495.093 576.626 502.575 576.626 505.584V512.635C576.626 513.158 576.733 513.574 577.161 513.574 579.43 513.574 589.832 513.37 591.477 513.158 594.912 512.853 596.051 511.495 596.565 509.74 596.772 508.586 596.772 507.448 596.868 506.521 596.868 506.107 597.085 505.792 597.709 505.792 598.545 505.792 598.658 507.035 598.658 507.768 598.658 508.381 598.847 511.918 599.041 513.676 599.567 518.14 599.775 519.598 599.775 520.124 599.775 520.636 599.469 521.045 599.041 521.045 598.658 521.045 598.325 520.534 597.602 519.916 596.772 518.982 595.426 518.766 593.239 518.57 591.16 518.356 579.335 518.356 577.25 518.356 576.733 518.356 576.626 518.766 576.626 519.279V541.092C576.626 541.618 576.827 541.922 577.25 541.922 579.11 541.922 590.016 541.712 591.579 541.511 596.133 541.092 596.868 539.839 597.602 538.288 598.107 537.25 598.233 535.7 598.233 535.065 598.233 534.349 598.325 533.927 598.953 533.927 599.681 533.927 599.882 534.972 599.983 535.38 600.204 536.421 600.405 540.266 600.5 541.195 600.702 545.244 601.248 546.295 601.248 546.908 601.248 547.32 601.127 547.738 600.602 547.738 600.204 547.738 599.681 547.433 599.161 547.32"/>
</clipPath>
<clipPath id="clip_11">
<path transform="matrix(1,0,0,-1,0,1000)" d="M0 1000H1000V0H0Z"/>
</clipPath>
<clipPath id="clip_12">
<path transform="matrix(1,0,0,-1,0,1000)" d="M618.646 545.976C618.141 543.277 616.789 535.286 616.789 533.197 616.789 532.169 617.098 531.748 617.725 531.748 618.248 531.748 618.646 532.05 618.857 533.299 619.072 535.38 620.725 538.392 623.736 540.059 626.651 541.618 632.047 541.618 636.724 541.618H653.949C641.704 523.439 628.412 503.502 615.534 484.074 614.507 482.526 614.396 482.009 614.396 481.488 614.396 480.862 614.901 480.552 615.954 480.552 634.444 480.552 649.912 480.137 665.168 480.137 666.839 480.137 667.445 480.862 667.972 482.422 668.596 484.603 669.731 490.317 669.731 493.222 669.731 495.304 669.533 495.919 668.79 495.919 668.194 495.919 667.972 495.408 667.765 494.468 667.445 493.222 666.839 491.776 666.104 490.42 664.547 487.724 661.333 485.849 651.98 485.849H630.073C642.94 504.442 656.656 524.583 669.325 544.418 669.633 545.042 669.854 545.349 669.854 546.078 669.854 546.49 669.223 546.811 668.296 546.811H640.145C636.413 546.811 632.047 546.696 623.309 547.014 621.033 547.112 620.534 547.636 619.694 547.636 619.166 547.636 618.763 547.218 618.646 545.976"/>
</clipPath>
<clipPath id="clip_13">
<path transform="matrix(1,0,0,-1,0,1000)" d="M0 1000H1000V0H0Z"/>
</clipPath>
<clipPath id="clip_14">
<path transform="matrix(1,0,0,-1,0,1000)" d="M323.411 450.868C313.436 441.725 311.246 429.474 311.246 422.41 311.246 412.338 313.952 400.707 324.139 391.781 333.585 383.564 345.517 380.467 359.745 380.467 366.39 380.467 374.293 381.185 378.437 382.847 380.195 383.564 380.622 384.089 381.135 385.847 382.18 389.393 383.416 398.435 383.416 399.682 383.416 400.497 383.208 401.234 382.489 401.234 381.668 401.234 381.441 400.818 381.135 399.153 380.728 397.28 379.369 394.276 377.603 392.302 373.447 387.52 367.851 386.483 358.618 386.483 344.695 386.483 325.89 398.741 325.89 423.44 325.89 433.532 327.876 443.386 335.447 450.339 340.018 454.496 345.944 456.783 354.968 456.783 364.523 456.783 372.628 453.978 376.047 450.339 378.652 447.641 379.987 444.012 380.106 440.791 380.106 439.338 380.299 438.511 381.135 438.511 382.078 438.511 382.287 439.338 382.388 440.891 382.588 442.97 382.489 448.684 382.697 452.105 382.896 455.745 383.208 456.987 383.208 457.82 383.208 458.443 382.789 458.968 381.668 459.065 378.559 459.378 375.231 460.31 371.274 460.836 366.497 461.455 362.657 461.872 356.213 461.872 340.748 461.872 330.877 457.718 323.411 450.868"/>
</clipPath>
<clipPath id="clip_15">
<path transform="matrix(1,0,0,-1,0,1000)" d="M0 1000H1000V0H0Z"/>
</clipPath>
<clipPath id="clip_16">
<path transform="matrix(1,0,0,-1,0,1000)" d="M457.843 448.466C455.45 448.466 449.023 448.684 444.132 448.684 442.773 448.684 442.153 448.466 442.153 447.851 442.153 447.231 442.687 446.914 443.716 446.914 444.974 446.914 446.529 446.811 447.25 446.609 450.155 445.774 450.99 444.833 451.193 441.831 451.3 439.027 451.419 435.806 451.419 422.41V420.546C451.419 420.026 451.098 419.911 450.878 419.911H416.404C416.095 419.911 415.79 420.026 415.79 420.546V422.41C415.79 435.806 415.79 439.027 415.985 441.831 416.197 444.944 416.934 446.189 419.42 446.609 420.459 446.811 421.28 446.914 422.021 446.914 423.152 446.914 423.685 447.231 423.685 447.851 423.685 448.466 423.049 448.684 421.813 448.684 418.163 448.684 411.829 448.466 409.653 448.466 407.164 448.466 401.148 448.684 396.264 448.684 395.02 448.684 394.295 448.466 394.295 447.851 394.295 447.231 394.908 446.914 395.853 446.914 397.203 446.914 398.755 446.811 399.479 446.609 402.394 445.774 403.218 444.833 403.44 441.831 403.516 439.027 403.516 436.534 403.516 423.141V407.557C403.516 399.453 403.516 392.503 403.109 388.757 402.808 386.167 402.29 384.512 400.41 384.089 399.588 383.885 398.555 383.784 397.203 383.784 396.061 383.784 395.746 383.263 395.746 382.847 395.746 382.238 396.383 381.917 397.513 381.917 401.148 381.917 407.164 382.238 409.246 382.238 411.829 382.238 418.163 381.917 424.085 381.917 425.237 381.917 425.957 382.238 425.957 382.847 425.957 383.263 425.545 383.784 424.496 383.784 423.152 383.784 421.077 383.885 419.832 384.089 417.137 384.512 416.607 386.167 416.303 388.661 415.884 392.503 415.79 399.257 415.79 407.352V414.098C415.79 414.519 416.095 414.625 416.404 414.625H450.878C451.098 414.625 451.419 414.419 451.419 414.098V407.352C451.419 399.257 451.419 392.503 450.99 388.757 450.688 386.167 450.155 384.512 448.289 384.089 447.465 383.885 446.427 383.784 444.974 383.784 443.937 383.784 443.517 383.263 443.517 382.847 443.517 382.238 444.233 381.917 445.478 381.917 449.023 381.917 455.45 382.238 457.534 382.238 460.019 382.238 466.052 381.917 471.957 381.917 473.099 381.917 473.824 382.238 473.824 382.847 473.824 383.263 473.307 383.784 472.369 383.784 470.93 383.784 468.961 383.885 467.703 384.089 464.903 384.512 464.381 386.167 464.077 388.661 463.658 392.503 463.658 399.453 463.658 407.557V423.141C463.658 436.534 463.658 439.027 463.874 441.831 464.077 444.944 464.797 446.189 467.195 446.609 468.322 446.811 469.147 446.914 469.884 446.914 470.93 446.914 471.542 447.231 471.542 447.851 471.542 448.466 470.93 448.684 469.571 448.684 466.052 448.684 460.019 448.466 457.843 448.466"/>
</clipPath>
<clipPath id="clip_17">
<path transform="matrix(1,0,0,-1,0,1000)" d="M0 1000H1000V0H0Z"/>
</clipPath>
<clipPath id="clip_18">
<path transform="matrix(1,0,0,-1,0,1000)" d="M508.064 447.231 484.193 391.68C482.318 387.208 480.762 384.512 476.605 383.885 475.777 383.885 474.743 383.784 473.917 383.784 473.171 383.784 472.87 383.37 472.87 382.847 472.87 382.125 473.396 381.917 474.53 381.917 479.304 381.917 484.193 382.238 485.124 382.238 488.021 382.238 492.282 381.917 495.285 381.917 496.227 381.917 496.743 382.125 496.743 382.847 496.743 383.37 496.548 383.784 495.404 383.784H494.049C491.242 383.784 490.418 384.717 490.418 386.276 490.418 387.312 490.826 389.503 491.778 391.68L496.637 403.505C496.861 404.028 496.962 404.138 497.491 404.138H518.975C519.399 404.138 519.69 404.028 519.912 403.505L526.973 385.758C527.379 384.717 526.765 383.885 526.128 383.784 525.207 383.674 524.997 383.37 524.997 382.847 524.997 382.238 526.028 382.238 527.702 382.125 535.377 381.917 542.016 381.917 545.241 381.917 548.668 381.917 549.193 382.125 549.193 382.847 549.193 383.467 548.764 383.784 547.943 383.784 546.911 383.784 545.872 383.885 544.525 384.089 542.86 384.403 540.252 385.552 536.727 393.537 530.921 406.942 515.651 443.071 513.457 447.959 512.528 449.933 512.122 450.771 510.763 450.771 509.819 450.771 509.102 449.721 508.064 447.231M499.03 409.639 507.852 431.965C507.951 432.283 508.064 432.788 508.387 432.788 508.573 432.788 508.692 432.283 508.801 431.965L517.412 409.54C517.519 409.219 517.412 409.02 517.002 409.02H499.342C499.03 409.02 498.829 409.219 499.03 409.639"/>
</clipPath>
<clipPath id="clip_19">
<path transform="matrix(1,0,0,-1,0,1000)" d="M0 1000H1000V0H0Z"/>
</clipPath>
<clipPath id="clip_20">
<path transform="matrix(1,0,0,-1,0,1000)" d="M565.165 448.466C562.56 448.466 556.752 448.684 551.949 448.684 550.612 448.684 549.887 448.466 549.887 447.851 549.887 447.231 550.502 446.914 551.442 446.914 552.797 446.914 554.346 446.811 555.075 446.609 557.99 445.774 558.807 444.833 559.015 441.831 559.133 439.027 559.133 436.534 559.133 423.141V407.557C559.133 399.453 559.133 392.503 558.694 388.757 558.401 386.167 557.9 384.512 556.016 384.089 555.194 383.885 554.149 383.784 552.797 383.784 551.65 383.784 551.347 383.263 551.347 382.847 551.347 382.238 551.949 381.917 553.118 381.917 556.752 381.917 562.56 382.238 564.645 382.238 567.025 382.238 573.464 381.917 579.588 381.917 580.512 381.917 581.253 382.238 581.253 382.847 581.253 383.263 580.825 383.784 579.791 383.784 578.431 383.784 576.475 383.885 575.114 384.089 572.417 384.512 571.906 386.167 571.598 388.661 571.179 392.503 571.179 399.453 571.179 407.557V442.556C571.179 443.499 571.399 444.012 571.906 444.218 572.743 444.528 574.496 444.638 575.864 444.638 577.931 444.638 581.664 444.218 584.996 441.305 590.092 436.946 590.389 431.141 590.389 428.225 590.389 419.187 583.234 413.892 578.144 413.892 576.165 413.892 575.114 413.482 575.114 412.757 575.114 412.135 575.745 411.82 576.258 411.82 576.683 411.719 578.551 411.719 578.957 411.719 591.951 411.719 601.908 420.644 601.908 433.102 601.908 437.883 599.316 441.831 597.355 443.698 595.904 444.944 591.723 448.684 580.311 448.684 576.165 448.684 568.885 448.466 565.165 448.466"/>
</clipPath>
<clipPath id="clip_21">
<path transform="matrix(1,0,0,-1,0,1000)" d="M0 1000H1000V0H0Z"/>
</clipPath>
<clipPath id="clip_22">
<path transform="matrix(1,0,0,-1,0,1000)" d="M655.788 448.997C655.047 448.891 653.581 448.583 651.934 448.466 650.179 448.366 629.924 448.466 627.023 448.466 624.436 448.466 618.603 448.684 613.829 448.684 612.482 448.684 611.757 448.466 611.757 447.851 611.757 447.231 612.375 446.914 613.319 446.914 614.655 446.914 616.216 446.811 616.951 446.609 619.861 445.774 620.681 444.833 620.889 441.831 620.991 439.027 620.991 436.534 620.991 423.141V407.557C620.991 399.453 620.991 392.503 620.581 388.757 620.271 386.167 619.747 384.512 617.874 384.089 617.048 383.885 616.01 383.784 614.655 383.784 613.519 383.784 613.198 383.263 613.198 382.847 613.198 382.238 613.829 381.917 614.976 381.917 616.844 381.917 619.129 382.01 621.318 382.125 623.49 382.125 625.46 382.238 626.509 382.238 629.201 382.238 632.621 382.125 637.086 382.01 641.56 381.812 647.062 381.711 653.908 381.711 657.334 381.711 658.172 381.711 658.786 383.996 659.295 385.758 660.032 391.781 660.032 393.755 660.032 394.684 659.921 395.832 659.193 395.832 658.579 395.832 658.363 395.412 658.172 394.493 657.554 390.85 656.508 388.97 654.215 387.936 651.835 386.897 647.986 386.789 645.602 386.789 636.268 386.789 633.456 388.142 633.25 394.178 633.149 396.776 633.25 404.24 633.25 407.247V414.302C633.25 414.836 633.337 415.247 633.766 415.247 636.048 415.247 646.431 415.04 648.078 414.836 651.518 414.519 652.652 413.173 653.187 411.407 653.386 410.259 653.386 409.109 653.499 408.183 653.499 407.772 653.707 407.462 654.327 407.462 655.173 407.462 655.259 408.714 655.259 409.432 655.259 410.051 655.466 413.592 655.675 415.358 656.198 419.814 656.406 421.271 656.406 421.791 656.406 422.313 656.095 422.719 655.675 422.719 655.259 422.719 654.947 422.205 654.215 421.587 653.386 420.644 652.046 420.44 649.859 420.23 647.789 420.026 635.94 420.026 633.868 420.026 633.337 420.026 633.25 420.44 633.25 420.953V442.759C633.25 443.275 633.456 443.596 633.868 443.596 635.732 443.596 646.628 443.386 648.198 443.185 652.78 442.759 653.499 441.517 654.215 439.962 654.741 438.925 654.847 437.363 654.847 436.742 654.847 436.018 654.947 435.604 655.58 435.604 656.304 435.604 656.508 436.645 656.614 437.048 656.813 438.091 657.024 441.932 657.125 442.865 657.334 446.914 657.867 447.959 657.867 448.583 657.867 448.997 657.743 449.407 657.232 449.407 656.813 449.407 656.304 449.108 655.788 448.997"/>
</clipPath>
<clipPath id="clip_23">
<path transform="matrix(1,0,0,-1,0,1000)" d="M0 1000H1000V0H0Z"/>
</clipPath>
<clipPath id="clip_24">
<path transform="matrix(1,0,0,-1,0,1000)" d="M684.615 448.466C682.113 448.466 676.321 448.684 672.043 448.684 670.693 448.684 670.074 448.466 670.074 447.851 670.074 447.231 670.596 446.914 671.636 446.914 672.773 446.914 673.92 446.811 674.64 446.609 677.554 445.774 678.398 444.833 678.586 441.831 678.698 439.027 678.698 436.534 678.698 423.141V407.557C678.698 399.453 678.698 392.503 678.299 388.757 677.966 386.167 677.456 384.512 675.586 384.089 674.747 383.885 673.708 383.784 672.364 383.784 671.222 383.784 670.913 383.263 670.913 382.847 670.913 382.238 671.534 381.917 672.679 381.917 674.548 381.917 676.838 382.01 679.015 382.125 681.189 382.125 683.176 382.238 684.201 382.238 687.941 382.238 691.789 382.125 696.344 382.01 700.912 381.812 706.225 381.711 712.765 381.711 717.548 381.711 717.962 382.125 718.585 384.089 719.309 386.694 719.924 393.225 719.924 394.276 719.924 395.303 719.718 396.238 719.11 396.238 718.365 396.238 718.162 395.734 718.056 394.892 717.836 393.225 716.924 390.74 715.764 389.596 713.489 387.208 709.958 387.104 705.083 387.104 698.018 387.104 694.479 387.626 692.926 388.97 690.952 390.646 690.952 396.238 690.952 407.557V423.141C690.952 436.534 690.952 439.027 691.148 441.831 691.379 444.944 692.091 446.189 694.586 446.609 695.628 446.811 697.081 446.914 698.126 446.914 699.27 446.914 699.791 447.231 699.791 447.851 699.791 448.466 699.155 448.684 697.811 448.684 694.276 448.684 686.8 448.466 684.615 448.466"/>
</clipPath>
<clipPath id="clip_25">
<path transform="matrix(1,0,0,-1,0,1000)" d="M0 1000H1000V0H0Z"/>
</clipPath>
</defs>
<g clip-path="url(#clip_1)">
<path transform="matrix(1,0,0,-1,857.1004,497.0631)" d="M0 0C0-191.001-154.837-345.837-345.837-345.837-536.838-345.837-691.675-191.001-691.675 0-691.675 191.001-536.838 345.837-345.837 345.837-154.837 345.837 0 191.001 0 0" fill="#031757"/>
<path transform="matrix(1,0,0,-1,433.6777,391.3913)" d="M0 0H75.085 80.071 155.177C170.132 42.536 196.044 65.362 196.044 65.362 186.069 69.3 176.948 58.917 176.948 58.917 173.844 68.258 162.238 65.768 161.81 57.674 161.396 49.595 169.27 48.35 169.27 48.35 169.072 46.69 154.965 30.501 146.472 33.404 129.439 39.219 133.813 57.263 133.813 57.263 133.813 57.263 141.906 58.711 142.522 64.726 143.848 77.521 129.225 77.806 125.926 71.575 121.246 62.819 127.998 58.711 127.998 58.711 127.998 58.711 123.407 46.056 105.179 46.69 89.44 47.216 85.573 60.986 84.811 64.797V83.569L114.404 83.651V97.065H84.811V132.089H70.358V97.065H40.777V83.446L70.358 83.544V64.82C69.61 61.071 65.767 47.216 49.981 46.69 31.725 46.056 27.184 58.711 27.184 58.711 27.184 58.711 33.924 62.819 29.252 71.575 25.931 77.806 11.335 77.521 12.636 64.726 13.275 58.711 21.368 57.263 21.368 57.263 21.368 57.263 25.743 39.219 8.713 33.404 .204 30.501-13.906 46.69-14.114 48.35-14.114 48.35-6.234 49.595-6.654 57.674-7.055 65.768-18.672 68.258-21.788 58.917-21.788 58.917-30.933 69.3-40.87 65.362-40.87 65.362-14.939 42.536 0 0" fill="#fbb723"/>
</g>
<g clip-path="url(#clip_2)">
<path transform="matrix(1,0,0,-1,0,1000)" d="M392.808 608.609H629.721V740.698H392.808Z" fill="#fbb723"/>
</g>
<g clip-path="url(#clip_3)">
<path transform="matrix(1,0,0,-1,0,1000)" d="M348.928 324.38H345.73603V349.95H348.928Z" fill="#ffffff"/>
<path transform="matrix(1,0,0,-1,360.2942,648.8308)" d="M0 0 19.196-20.102V-1.214H22.383V-27.832L3.195-7.729V-26.784H0Z" fill="#ffffff"/>
<path transform="matrix(1,0,0,-1,400.8974,675.6147)" d="M0 0H-3.189V22.647H-9.258V25.57H6.066V22.647H0Z" fill="#ffffff"/>
<path transform="matrix(1,0,0,-1,416.2534,650.04446)" d="M0 0H13.734V-2.923H3.189V-10.078H13.427V-12.991H3.189V-22.653H13.734V-25.57H0Z" fill="#ffffff"/>
<path transform="matrix(1,0,0,-1,456.6095,675.6147)" d="M0 0H-3.866L-11.394 10.816H-12.716V0H-15.902V25.57H-12.037C-9.768 25.57-7.32 25.531-5.291 24.38-3.148 23.12-1.937 20.716-1.937 18.275-1.937 14.612-4.372 11.559-8.068 11.118ZM-12.716 13.46V13.46H-11.7C-8.445 13.46-4.918 14.07-4.918 18.137-4.918 22.143-8.718 22.715-11.872 22.715H-12.716Z" fill="#ffffff"/>
<path transform="matrix(1,0,0,-1,465.6016,648.8308)" d="M0 0 19.192-20.102V-1.214H22.374V-27.832L3.186-7.729V-26.784H0Z" fill="#ffffff"/>
<path transform="matrix(1,0,0,-1,502.9357,669.2044)" d="M0 0-2.916-6.41H-6.341L5.865 20.238 18.076-6.41H14.647L11.735 0ZM5.865 13.254V13.254L1.32 2.912H10.413Z" fill="#ffffff"/>
<path transform="matrix(1,0,0,-1,534.1009,675.6147)" d="M0 0H-3.186V22.647H-9.255V25.57H6.066V22.647H0Z" fill="#ffffff"/>
<path transform="matrix(1,0,0,-1,0,1000)" d="M552.556 324.385H549.367V349.95503H552.556Z" fill="#ffffff"/>
<path transform="matrix(1,0,0,-1,589.1042,662.8297)" d="M0 0C0-7.599-5.998-13.325-13.396-13.325-20.78-13.325-26.791-7.599-26.791 0-26.791 7.317-20.724 13.324-13.396 13.324-6.069 13.324 0 7.317 0 0M-3.189 0V0C-3.189 5.627-7.391 10.335-13.396 10.335-19.398 10.335-23.6 5.627-23.6 0-23.6-5.831-18.92-10.345-13.396-10.345-7.866-10.345-3.189-5.831-3.189 0" fill="#ffffff"/>
<path transform="matrix(1,0,0,-1,598.677,648.8308)" d="M0 0 19.185-20.102V-1.214H22.374V-27.832L3.189-7.729V-26.784H0Z" fill="#ffffff"/>
<path transform="matrix(1,0,0,-1,636.0057,669.2044)" d="M0 0-2.908-6.41H-6.336L5.869 20.238 18.071-6.41H14.647L11.742 0ZM5.869 13.254V13.254L1.322 2.912H10.413Z" fill="#ffffff"/>
<path transform="matrix(1,0,0,-1,666.1868,672.69766)" d="M0 0H7.766V-2.917H-3.186V22.653H0Z" fill="#ffffff"/>
<path transform="matrix(1,0,0,-1,369.5403,471.37678)" d="M0 0C0 15.795 0 18.696-.194 22.02-.419 25.563-1.235 27.214-4.659 27.942-5.501 28.146-7.276 28.26-8.72 28.26-9.871 28.26-10.486 28.463-10.486 29.193-10.486 29.92-9.77 30.124-8.207 30.124-2.706 30.124 3.852 29.811 6.741 29.811 11.01 29.811 17.04 30.124 21.799 30.124 34.777 30.124 39.457 25.762 41.129 24.206 43.409 22.02 46.317 17.353 46.317 11.84 46.317-2.894 35.516-13.286 20.768-13.286 20.239-13.286 19.103-13.286 18.591-13.176 18.058-13.068 17.334-12.961 17.334-12.249 17.334-11.419 18.058-11.101 20.239-11.101 26.062-11.101 34.157-4.561 34.157 6.032 34.157 9.459 33.844 16.418 28.029 21.614 24.293 25.034 20.052 25.665 17.648 25.665 16.097 25.665 14.535 25.563 13.594 25.245 13.08 25.034 12.771 24.41 12.771 23.266V-18.265C12.771-27.825 12.771-36.025 13.304-40.489 13.594-43.4 14.228-45.683 17.334-46.097 18.794-46.308 21.081-46.512 22.637-46.512 23.78-46.512 24.293-46.82 24.293-47.34 24.293-48.071 23.458-48.38 22.314-48.38 15.473-48.38 8.933-48.071 6.233-48.071 3.852-48.071-2.706-48.38-6.853-48.38-8.207-48.38-8.923-48.071-8.923-47.34-8.923-46.82-8.512-46.512-7.276-46.512-5.721-46.512-4.46-46.308-3.527-46.097-1.448-45.683-.94-43.4-.515-40.386 0-36.025 0-27.825 0-18.265Z" fill="#fbb723"/>
</g>
<g clip-path="url(#clip_4)">
<path transform="matrix(1,0,0,-1,0,1000)" d="M359.054 480.243H415.857V558.747H359.054Z" fill="#fbb723"/>
</g>
<g clip-path="url(#clip_5)">
<path transform="matrix(1,0,0,-1,435.4561,478.53523)" d="M0 0C0 13.393 0 15.889-.119 18.696-.322 21.708-1.151 22.64-4.056 23.474-4.778 23.678-6.339 23.779-7.691 23.779-8.631 23.779-9.246 24.087-9.246 24.712-9.246 25.346-8.512 25.549-7.174 25.549-2.397 25.549 3.424 25.346 6.023 25.346 8.926 25.346 29.179 25.231 30.943 25.346 32.599 25.442 34.056 25.753 34.774 25.855 35.296 25.968 35.822 26.274 36.232 26.274 36.767 26.274 36.865 25.855 36.865 25.442 36.865 24.829 36.334 23.779 36.131 19.73 36.03 18.801 35.822 14.956 35.605 13.915 35.516 13.507 35.296 12.462 34.573 12.462 33.955 12.462 33.855 12.884 33.855 13.601 33.855 14.235 33.75 15.786 33.217 16.823 32.5 18.374 31.782 19.627 27.193 20.046 25.634 20.247 14.727 20.457 12.876 20.457 12.465 20.457 12.257 20.153 12.257 19.627V-2.186C12.257-2.699 12.345-3.109 12.876-3.109 14.953-3.109 26.786-3.109 28.866-2.894 31.044-2.699 32.398-2.482 33.217-1.55 33.955-.931 34.264-.419 34.674-.419 35.106-.419 35.415-.83 35.415-1.342 35.415-1.867 35.207-3.325 34.674-7.789 34.473-9.546 34.264-13.084 34.264-13.697 34.264-14.43 34.157-15.673 33.338-15.673 32.713-15.673 32.5-15.358 32.5-14.944 32.398-14.017 32.398-12.879 32.196-11.725 31.67-9.969 30.519-8.612 27.091-8.306 25.432-8.095 15.059-7.89 12.774-7.89 12.345-7.89 12.257-8.306 12.257-8.83V-15.88C12.257-18.89 12.14-26.372 12.257-28.964 12.465-34.987 15.258-36.341 24.605-36.341 27.003-36.341 30.836-36.241 33.217-35.198 35.516-34.161 36.541-32.281 37.181-28.662 37.384-27.725 37.585-27.303 38.219-27.303 38.935-27.303 39.048-28.451 39.048-29.383 39.048-31.355 38.308-37.391 37.791-39.15 37.181-41.424 36.334-41.424 32.896-41.424 26.063-41.424 20.56-41.328 16.092-41.124 11.627-41.013 8.208-40.912 5.494-40.912 4.449-40.912 2.475-41.013 .302-41.013-1.867-41.124-4.159-41.221-6.026-41.221-7.174-41.221-7.793-40.912-7.793-40.281-7.793-39.862-7.484-39.354-6.339-39.354-5.003-39.354-3.955-39.247-3.118-39.043-1.258-38.624-.732-36.956-.428-34.372 0-30.629 0-23.673 0-15.571Z" fill="#fbb723"/>
</g>
<g clip-path="url(#clip_6)">
<path transform="matrix(1,0,0,-1,0,1000)" d="M426.21 480.041H474.504V547.739H426.21Z" fill="#fbb723"/>
</g>
<g clip-path="url(#clip_7)">
<path transform="matrix(1,0,0,-1,493.1584,478.53523)" d="M0 0C0 13.393 0 15.889-.092 18.696-.318 21.708-1.139 22.64-4.049 23.474-4.765 23.678-6.331 23.779-7.683 23.779-8.607 23.779-9.241 24.087-9.241 24.712-9.241 25.346-8.518 25.549-7.155 25.549-2.376 25.549 3.436 25.346 5.303 25.346 8.421 25.346 16.724 25.549 19.519 25.549 25.343 25.549 31.993 25.025 36.876 21.812 39.464 20.046 43.305 15.578 43.305 9.665 43.305 3.118 39.571-2.699 30.638-9.864 38.732-19.828 45.173-27.827 50.671-33.331 55.767-38.418 58.99-38.834 60.452-39.15 61.383-39.354 61.897-39.354 62.62-39.354 63.345-39.354 63.764-39.862 63.764-40.281 63.764-41.013 63.155-41.221 62.023-41.221H53.269C48.184-41.221 45.699-40.708 43.305-39.455 39.37-37.485 35.927-33.331 30.845-26.477 27.21-21.704 23.369-15.781 22.228-14.43 21.716-13.915 21.196-13.807 20.56-13.807L12.364-13.601C11.946-13.601 11.645-13.807 11.645-14.326V-15.571C11.645-23.783 11.739-30.629 12.156-34.372 12.474-36.956 12.886-38.624 15.681-39.043 17.033-39.247 19.002-39.354 20.153-39.354 20.869-39.354 21.301-39.862 21.301-40.281 21.301-40.912 20.56-41.221 19.412-41.221 14.126-41.221 6.545-40.912 5.197-40.912 3.436-40.912-2.376-41.221-6.018-41.221-7.155-41.221-7.784-40.912-7.784-40.281-7.784-39.862-7.475-39.354-6.331-39.354-4.973-39.354-3.948-39.247-3.12-39.043-1.24-38.624-.711-36.956-.416-34.372 0-30.629 0-23.673 0-15.571ZM11.645-6.846V-6.846C11.645-7.789 11.847-8.095 12.474-8.404 14.445-9.026 17.135-9.23 19.412-9.23 23.047-9.23 24.3-8.93 25.88-7.789 28.671-5.803 31.794-1.974 31.794 5.298 31.794 17.764 23.266 20.979 17.872 20.979 15.574 20.979 13.407 20.885 12.474 20.661 11.847 20.457 11.645 20.153 11.645 19.418Z" fill="#fbb723"/>
</g>
<g clip-path="url(#clip_8)">
<path transform="matrix(1,0,0,-1,0,1000)" d="M483.918 480.243H556.923V547.013H483.918Z" fill="#fbb723"/>
</g>
<g clip-path="url(#clip_9)">
<path transform="matrix(1,0,0,-1,564.3689,478.53523)" d="M0 0C0 13.393 0 15.889-.101 18.696-.331 21.708-1.139 22.64-4.058 23.474-4.778 23.678-6.327 23.779-7.692 23.779-8.615 23.779-9.246 24.087-9.246 24.712-9.246 25.346-8.521 25.549-7.165 25.549-2.384 25.549 3.431 25.346 6.023 25.346 8.921 25.346 29.191 25.231 30.945 25.346 32.615 25.442 34.051 25.753 34.791 25.855 35.312 25.968 35.835 26.274 36.232 26.274 36.758 26.274 36.879 25.855 36.879 25.442 36.879 24.829 36.334 23.779 36.131 19.73 36.037 18.801 35.835 14.956 35.614 13.915 35.513 13.507 35.312 12.462 34.584 12.462 33.956 12.462 33.864 12.884 33.864 13.601 33.864 14.235 33.738 15.786 33.233 16.823 32.499 18.374 31.764 19.627 27.21 20.046 25.647 20.247 14.741 20.457 12.881 20.457 12.458 20.457 12.257 20.153 12.257 19.627V-2.186C12.257-2.699 12.364-3.109 12.881-3.109 14.965-3.109 26.791-3.109 28.87-2.894 31.057-2.699 32.403-2.482 33.233-1.55 33.956-.931 34.289-.419 34.672-.419 35.1-.419 35.406-.83 35.406-1.342 35.406-1.867 35.198-3.325 34.672-7.789 34.479-9.546 34.289-13.084 34.289-13.697 34.289-14.43 34.177-15.673 33.34-15.673 32.716-15.673 32.499-15.358 32.499-14.944 32.403-14.017 32.403-12.879 32.196-11.725 31.682-9.969 30.543-8.612 27.109-8.306 25.464-8.095 15.061-7.89 12.792-7.89 12.364-7.89 12.257-8.306 12.257-8.83V-15.88C12.257-18.89 12.162-26.372 12.257-28.964 12.458-34.987 15.271-36.341 24.605-36.341 26.994-36.341 30.836-36.241 33.233-35.198 35.513-34.161 36.55-32.281 37.172-28.662 37.384-27.725 37.583-27.303 38.219-27.303 38.938-27.303 39.061-28.451 39.061-29.383 39.061-31.355 38.32-37.391 37.808-39.15 37.172-41.424 36.334-41.424 32.912-41.424 26.059-41.424 20.56-41.328 16.104-41.124 11.618-41.013 8.193-40.912 5.511-40.912 4.461-40.912 2.495-41.013 .318-41.013-1.867-41.124-4.159-41.221-6.018-41.221-7.165-41.221-7.793-40.912-7.793-40.281-7.793-39.862-7.475-39.354-6.327-39.354-4.986-39.354-3.944-39.247-3.125-39.043-1.253-38.624-.725-36.956-.419-34.372 0-30.629 0-23.673 0-15.571Z" fill="#fbb723"/>
</g>
<g clip-path="url(#clip_10)">
<path transform="matrix(1,0,0,-1,0,1000)" d="M555.123 480.041H603.43V547.739H555.123Z" fill="#fbb723"/>
</g>
<g clip-path="url(#clip_11)">
<path transform="matrix(1,0,0,-1,651.98,514.15139)" d="M0 0C9.353 0 12.567 1.875 14.125 4.572 14.859 5.927 15.464 7.373 15.785 8.619 15.992 9.559 16.214 10.07 16.81 10.07 17.552 10.07 17.751 9.456 17.751 7.373 17.751 4.469 16.616-1.245 15.992-3.427 15.464-4.987 14.859-5.712 13.189-5.712-2.068-5.712-17.536-5.296-36.026-5.296-37.08-5.296-37.584-4.987-37.584-4.36-37.584-3.839-37.472-3.322-36.445-1.775-23.568 17.654-10.276 37.59 1.969 55.769H-15.256C-19.933 55.769-25.329 55.769-28.244 54.211-31.256 52.543-32.908 49.531-33.123 47.451-33.335 46.202-33.732 45.9-34.255 45.9-34.882 45.9-35.191 46.321-35.191 47.348-35.191 49.437-33.839 57.429-33.335 60.128-33.217 61.37-32.814 61.787-32.286 61.787-31.446 61.787-30.946 61.263-28.671 61.165-19.933 60.847-15.568 60.963-11.835 60.963H16.316C17.243 60.963 17.874 60.641 17.874 60.229 17.874 59.5 17.653 59.193 17.344 58.569 4.676 38.734-9.04 18.594-21.907 0Z" fill="#fbb723"/>
</g>
<g clip-path="url(#clip_12)">
<path transform="matrix(1,0,0,-1,0,1000)" d="M614.396 480.137H669.854V547.636H614.396Z" fill="#fbb723"/>
</g>
<g clip-path="url(#clip_13)">
<path transform="matrix(1,0,0,-1,324.1382,608.2191)" d="M0 0C-10.186 8.927-12.892 20.557-12.892 30.629-12.892 37.693-10.703 49.944-.727 59.088 6.739 65.937 16.61 70.091 32.075 70.091 38.519 70.091 42.359 69.674 47.136 69.055 51.093 68.53 54.421 67.597 57.53 67.284 58.651 67.186 59.07 66.662 59.07 66.039 59.07 65.205 58.758 63.963 58.559 60.325 58.351 56.903 58.45 51.189 58.249 49.11 58.148 47.557 57.94 46.729 56.997 46.729 56.162 46.729 55.968 47.557 55.968 49.011 55.849 52.232 54.515 55.86 51.908 58.559 48.49 62.197 40.385 65.003 30.83 65.003 21.806 65.003 15.88 62.714 11.309 58.559 3.738 51.605 1.752 41.751 1.752 31.659 1.752 6.96 20.556-5.298 34.48-5.298 43.712-5.298 49.309-4.26 53.465 .521 55.231 2.495 56.59 5.499 56.997 7.372 57.302 9.036 57.53 9.452 58.351 9.452 59.07 9.452 59.278 8.717 59.278 7.901 59.278 6.654 58.041-2.388 56.997-5.934 56.483-7.691 56.057-8.217 54.298-8.933 50.155-10.596 42.252-11.314 35.607-11.314 21.379-11.314 9.447-8.217 0 0" fill="#fbb723"/>
</g>
<g clip-path="url(#clip_14)">
<path transform="matrix(1,0,0,-1,0,1000)" d="M311.246 380.467H383.41603V461.872H311.246Z" fill="#fbb723"/>
</g>
<g clip-path="url(#clip_15)">
<path transform="matrix(1,0,0,-1,450.878,580.0884)" d="M0 0C.22 0 .542 .114 .542 .634V2.498C.542 15.894 .421 19.116 .315 21.919 .112 24.922-.723 25.862-3.628 26.697-4.349 26.899-5.904 27.002-7.162 27.002-8.191 27.002-8.725 27.319-8.725 27.939-8.725 28.555-8.105 28.772-6.746 28.772-1.855 28.772 4.571 28.555 6.965 28.555 9.141 28.555 15.173 28.772 18.693 28.772 20.052 28.772 20.663 28.555 20.663 27.939 20.663 27.319 20.052 27.002 19.005 27.002 18.268 27.002 17.444 26.899 16.317 26.697 13.918 26.278 13.199 25.032 12.996 21.919 12.78 19.116 12.78 16.623 12.78 3.23V-12.355C12.78-20.459 12.78-27.409 13.199-31.25 13.503-33.745 14.025-35.399 16.825-35.822 18.083-36.026 20.052-36.128 21.491-36.128 22.429-36.128 22.946-36.648 22.946-37.064 22.946-37.673 22.221-37.995 21.079-37.995 15.173-37.995 9.141-37.673 6.656-37.673 4.571-37.673-1.855-37.995-5.4-37.995-6.645-37.995-7.361-37.673-7.361-37.064-7.361-36.648-6.942-36.128-5.904-36.128-4.451-36.128-3.413-36.026-2.589-35.822-.723-35.399-.19-33.745 .112-31.155 .542-27.409 .542-20.654 .542-12.56V-5.813C.542-5.494 .22-5.287 0-5.287H-34.474C-34.783-5.287-35.088-5.392-35.088-5.813V-12.56C-35.088-20.654-34.994-27.409-34.575-31.25-34.271-33.745-33.741-35.399-31.046-35.822-29.801-36.026-27.726-36.128-26.382-36.128-25.332-36.128-24.922-36.648-24.922-37.064-24.922-37.673-25.641-37.995-26.793-37.995-32.714-37.995-39.048-37.673-41.632-37.673-43.714-37.673-49.73-37.995-53.365-37.995-54.495-37.995-55.132-37.673-55.132-37.064-55.132-36.648-54.817-36.128-53.674-36.128-52.322-36.128-51.29-36.026-50.468-35.822-48.588-35.399-48.071-33.745-47.769-31.155-47.362-27.409-47.362-20.459-47.362-12.355V3.23C-47.362 16.623-47.362 19.116-47.438 21.919-47.66 24.922-48.485 25.862-51.399 26.697-52.123 26.899-53.674 27.002-55.025 27.002-55.97 27.002-56.583 27.319-56.583 27.939-56.583 28.555-55.858 28.772-54.614 28.772-49.73 28.772-43.714 28.555-41.225 28.555-39.048 28.555-32.714 28.772-29.065 28.772-27.829 28.772-27.193 28.555-27.193 27.939-27.193 27.319-27.726 27.002-28.857 27.002-29.598 27.002-30.419 26.899-31.458 26.697-33.944 26.278-34.681 25.032-34.893 21.919-35.088 19.116-35.088 15.894-35.088 2.498V.634C-35.088 .114-34.783 0-34.474 0Z" fill="#fbb723"/>
</g>
<g clip-path="url(#clip_16)">
<path transform="matrix(1,0,0,-1,0,1000)" d="M394.295 381.917H473.824V448.684H394.295Z" fill="#fbb723"/>
</g>
<g clip-path="url(#clip_17)">
<path transform="matrix(1,0,0,-1,497.4916,595.8618)" d="M0 0C-.529 0-.631-.11-.855-.633L-5.714-12.458C-6.666-14.635-7.073-16.826-7.073-17.863-7.073-19.421-6.25-20.354-3.443-20.354H-2.087C-.943-20.354-.748-20.768-.748-21.291-.748-22.014-1.265-22.222-2.207-22.222-5.209-22.222-9.47-21.9-12.368-21.9-13.299-21.9-18.188-22.222-22.962-22.222-24.096-22.222-24.621-22.014-24.621-21.291-24.621-20.768-24.321-20.354-23.575-20.354-22.749-20.354-21.715-20.253-20.887-20.253-16.729-19.625-15.173-16.93-13.299-12.458L10.572 43.092C11.611 45.583 12.327 46.633 13.271 46.633 14.63 46.633 15.036 45.794 15.966 43.821 18.16 38.933 33.429 2.804 39.235-10.602 42.76-18.586 45.368-19.736 47.033-20.049 48.38-20.253 49.419-20.354 50.451-20.354 51.272-20.354 51.701-20.67 51.701-21.291 51.701-22.014 51.176-22.222 47.749-22.222 44.524-22.222 37.885-22.222 30.21-22.014 28.536-21.9 27.505-21.9 27.505-21.291 27.505-20.768 27.715-20.464 28.637-20.354 29.273-20.253 29.888-19.421 29.481-18.38L22.42-.633C22.198-.11 21.907 0 21.484 0ZM19.51 4.882V4.882C19.92 4.882 20.027 5.081 19.92 5.401L11.309 27.827C11.201 28.145 11.081 28.649 10.895 28.649 10.572 28.649 10.46 28.145 10.36 27.827L1.539 5.501C1.338 5.081 1.539 4.882 1.851 4.882Z" fill="#fbb723"/>
</g>
<g clip-path="url(#clip_18)">
<path transform="matrix(1,0,0,-1,0,1000)" d="M472.87 381.917H549.192V450.772H472.87Z" fill="#fbb723"/>
</g>
<g clip-path="url(#clip_19)">
<path transform="matrix(1,0,0,-1,559.1329,576.8584)" d="M0 0C0 13.393 0 15.886-.117 18.689-.325 21.692-1.143 22.632-4.058 23.467-4.787 23.669-6.336 23.772-7.692 23.772-8.631 23.772-9.246 24.089-9.246 24.709-9.246 25.325-8.521 25.542-7.183 25.542-2.381 25.542 3.427 25.325 6.032 25.325 9.752 25.325 17.031 25.542 21.178 25.542 32.59 25.542 36.771 21.802 38.222 20.556 40.184 18.689 42.776 14.741 42.776 9.96 42.776-2.498 32.817-11.422 19.825-11.422 19.417-11.422 17.55-11.422 17.126-11.321 16.612-11.321 15.981-11.006 15.981-10.385 15.981-9.66 17.031-9.249 19.011-9.249 24.101-9.249 31.256-3.955 31.256 5.083 31.256 7.999 30.959 13.805 25.863 18.163 22.53 21.077 18.798 21.496 16.731 21.496 15.363 21.496 13.61 21.387 12.773 21.077 12.266 20.871 12.046 20.358 12.046 19.414V-15.585C12.046-23.689 12.046-30.639 12.465-34.48 12.773-36.975 13.284-38.629 15.981-39.052 17.342-39.256 19.298-39.358 20.658-39.358 21.692-39.358 22.12-39.878 22.12-40.294 22.12-40.903 21.379-41.225 20.455-41.225 14.331-41.225 7.892-40.903 5.511-40.903 3.427-40.903-2.381-41.225-6.014-41.225-7.183-41.225-7.786-40.903-7.786-40.294-7.786-39.878-7.484-39.358-6.336-39.358-4.984-39.358-3.939-39.256-3.117-39.052-1.233-38.629-.732-36.975-.439-34.385 0-30.639 0-23.689 0-15.585Z" fill="#fbb723"/>
</g>
<g clip-path="url(#clip_20)">
<path transform="matrix(1,0,0,-1,0,1000)" d="M549.887 381.917H601.909V448.684H549.887Z" fill="#fbb723"/>
</g>
<g clip-path="url(#clip_21)">
<path transform="matrix(1,0,0,-1,620.9907,576.8584)" d="M0 0C0 13.393 0 15.886-.101 18.689-.309 21.692-1.13 22.632-4.04 23.467-4.774 23.669-6.336 23.772-7.672 23.772-8.615 23.772-9.234 24.089-9.234 24.709-9.234 25.325-8.508 25.542-7.162 25.542-2.388 25.542 3.445 25.325 6.032 25.325 8.933 25.325 29.188 25.224 30.943 25.325 32.59 25.441 34.056 25.75 34.797 25.855 35.314 25.967 35.822 26.265 36.241 26.265 36.753 26.265 36.876 25.855 36.876 25.441 36.876 24.817 36.343 23.772 36.135 19.723 36.033 18.791 35.822 14.949 35.623 13.906 35.517 13.503 35.314 12.462 34.589 12.462 33.956 12.462 33.857 12.876 33.857 13.601 33.857 14.221 33.751 15.783 33.224 16.82 32.509 18.375 31.789 19.617 27.207 20.043 25.638 20.244 14.741 20.454 12.878 20.454 12.465 20.454 12.259 20.134 12.259 19.617V-2.189C12.259-2.702 12.347-3.116 12.878-3.116 14.949-3.116 26.798-3.116 28.868-2.912 31.055-2.702 32.395-2.498 33.224-1.554 33.956-.936 34.267-.423 34.685-.423 35.104-.423 35.415-.828 35.415-1.35 35.415-1.871 35.207-3.328 34.685-7.784 34.475-9.55 34.267-13.091 34.267-13.709 34.267-14.427 34.182-15.679 33.336-15.679 32.716-15.679 32.509-15.37 32.509-14.958 32.395-14.032 32.395-12.883 32.196-11.735 31.661-9.969 30.527-8.622 27.088-8.306 25.441-8.102 15.057-7.894 12.775-7.894 12.347-7.894 12.259-8.306 12.259-8.839V-15.894C12.259-18.902 12.158-26.366 12.259-28.964 12.465-34.999 15.278-36.353 24.611-36.353 26.995-36.353 30.844-36.245 33.224-35.205 35.517-34.171 36.563-32.292 37.181-28.649 37.372-27.729 37.588-27.31 38.203-27.31 38.93-27.31 39.042-28.457 39.042-29.387 39.042-31.361 38.304-37.384 37.796-39.146 37.181-41.431 36.343-41.431 32.917-41.431 26.071-41.431 20.569-41.329 16.095-41.131 11.63-41.017 8.21-40.903 5.519-40.903 4.468-40.903 2.5-41.017 .327-41.017-1.862-41.131-4.147-41.225-6.014-41.225-7.162-41.225-7.793-40.903-7.793-40.294-7.793-39.878-7.471-39.358-6.336-39.358-4.98-39.358-3.942-39.256-3.116-39.052-1.244-38.629-.72-36.975-.41-34.385 0-30.639 0-23.689 0-15.585Z" fill="#fbb723"/>
</g>
<g clip-path="url(#clip_22)">
<path transform="matrix(1,0,0,-1,0,1000)" d="M611.757 381.711H660.03207V449.40699H611.757Z" fill="#fbb723"/>
</g>
<g clip-path="url(#clip_23)">
<path transform="matrix(1,0,0,-1,690.952,592.4435)" d="M0 0C0-11.319 0-16.911 1.974-18.586 3.527-19.931 7.066-20.452 14.13-20.452 19.006-20.452 22.538-20.348 24.812-17.961 25.972-16.816 26.884-14.331 27.104-12.664 27.211-11.822 27.413-11.319 28.158-11.319 28.767-11.319 28.971-12.254 28.971-13.281 28.971-14.331 28.357-20.862 27.633-23.467 27.01-25.432 26.596-25.846 21.813-25.846 15.273-25.846 9.96-25.744 5.392-25.546 .837-25.432-3.011-25.318-6.751-25.318-7.777-25.318-9.763-25.432-11.937-25.432-14.114-25.546-16.404-25.64-18.273-25.64-19.418-25.64-20.039-25.318-20.039-24.709-20.039-24.293-19.73-23.773-18.588-23.773-17.245-23.773-16.205-23.671-15.366-23.467-13.496-23.044-12.986-21.39-12.654-18.799-12.254-15.054-12.254-8.104-12.254 0V15.585C-12.254 28.978-12.254 31.471-12.366 34.275-12.554 37.277-13.398 38.217-16.312 39.052-17.032 39.255-18.179 39.358-19.316 39.358-20.356 39.358-20.878 39.674-20.878 40.294-20.878 40.91-20.26 41.127-18.909 41.127-14.631 41.127-8.839 40.91-6.337 40.91-4.152 40.91 3.324 41.127 6.858 41.127 8.203 41.127 8.839 40.91 8.839 40.294 8.839 39.674 8.319 39.358 7.174 39.358 6.128 39.358 4.676 39.255 3.633 39.052 1.139 38.633 .427 37.387 .195 34.275 0 31.471 0 28.978 0 15.585Z" fill="#fbb723"/>
</g>
<g clip-path="url(#clip_24)">
<path transform="matrix(1,0,0,-1,0,1000)" d="M670.074 381.711H719.923V448.684H670.074Z" fill="#fbb723"/>
</g>
<g clip-path="url(#clip_25)">
<path transform="matrix(1,0,0,-1,269.6607,408.22743)" d="M0 0C0 0 5.028-2.528 13.261-3.292 21.507-4.07 201.88-6.121 234.165-5.931 266.432-5.73 420.689-3.976 430.143-8.366L430.507-.665Z" fill="#fbb723"/>
<path transform="matrix(1,0,0,-1,269.6607,408.22743)" d="M0 0C0 0 5.044 2.507 13.292 3.211 21.525 3.921 201.927 5.448 234.185 5.037 266.462 4.596 420.695 2.667 430.182 6.981L430.507-.723Z" fill="#fbb723"/>
<path transform="matrix(1,0,0,-1,700.9764,411.85719)" d="M0 0C10.086-.076 19.096-.382 19.096-.382 16.832-3.719 19.514-8.013 23.326-8.501 27.146-9.001 29.019-5.282 28.856-2.748 28.697-.25 31.195-3.152 35.211-2.255 39.219-1.338 44.839 2.622 44.839 2.63 44.839 2.63 39.269 6.666 35.284 7.636 31.265 8.569 28.724 5.709 28.936 8.226 29.138 10.737 27.292 14.491 23.483 14.036 19.663 13.601 16.927 9.338 19.121 5.975 19.121 5.975 12.584 5.954-.185 6.035Z" fill="#fbb723"/>
<path transform="matrix(1,0,0,-1,698.6223,400.799)" d="M0 0-.361-32.453C2.384-31.615 5.968-26.629 6.023-23.36 6.041-20.977 6.176-8.999 6.256-2.724 6.314 1.242 6.325 4.737 6.325 5.893 6.409 9.159 2.94 14.228 .19 15.131Z" fill="#fbb723"/>
<path transform="matrix(1,0,0,-1,511.2647,830.8615)" d="M0 0C-185.63 0-336.098 150.51-336.098 336.14-336.098 521.771-185.63 672.238 0 672.238 185.63 672.238 336.14 521.771 336.14 336.14 336.14 150.51 185.63 0 0 0M0 701C-201.505 701-364.902 537.645-364.902 336.14-364.902 134.593-201.505-28.762 0-28.762 201.548-28.762 364.902 134.593 364.902 336.14 364.902 537.645 201.548 701 0 701" fill="#fbb723"/>
</g>
</svg>
